<?xml version="1.0" encoding="UTF-8"?><svg id="a" xmlns="http://www.w3.org/2000/svg" viewBox="0 0 988.91 709.1"><defs><style>.b{fill:#fff;}.c{fill:#e2368d;}.d{fill:#179ccd;}.e{fill:#3b3c3f;}.f{fill:#002c3a;}.g{fill:#efe945;}</style></defs><path class="e" d="M288.92,395.71c-1.16,1.01-2.45,1.51-3.86,1.51h-37.61c-1.41,0-2.13,.69-2.13,2.13l-9.83,77.77c-.25,1.45-.41,3.42-.41,6,0,12.21,5.56,18.37,16.64,18.37h15.42c1.41,0,2.54,.5,3.39,1.48,.88,1,1.16,2.2,.88,3.64l-6,49.58c-.57,3.14-2.42,4.99-5.56,5.56-13.66,.57-23.51,.85-29.45,.85-21.98,0-38.3-3.11-48.95-9.38-10.71-6.28-16.04-17.96-16.04-35.04,0-2.29,.28-6.28,.85-11.99l12.84-106.81c.53-1.44,0-2.13-1.73-2.13h-23.52c-1.41,0-2.54-.5-3.39-1.51-.88-1-1.19-2.2-.88-3.64l5.56-46.56c.28-1.41,.94-2.64,1.91-3.64,1.01-1,2.23-1.51,3.64-1.51h23.52c1.69,0,2.58-.69,2.58-2.13l6.4-51.71c.25-1.44,.91-2.64,1.91-3.64s2.2-1.51,3.64-1.51h55.98c1.45,0,2.54,.53,3.42,1.51,.88,1,1.13,2.2,.88,3.64l-6.44,51.71c0,1.45,.57,2.13,1.7,2.13h38.05c1.41,0,2.54,.5,3.42,1.51,.85,1.01,1.13,2.23,.85,3.64l-6,46.56c0,1.45-.56,2.64-1.69,3.64"/><path class="e" d="M533.37,465.17c-.88,3.42-3.01,5.12-6.44,5.12h-126.09c-1.7,0-2.54,.72-2.54,2.13,.31,4.27,1.13,8.38,2.54,12.4,2.6,5.96,7,10.83,13.28,14.54,6.25,3.71,14.26,5.56,23.93,5.56,17.11,0,31.49-5.87,43.2-17.52,1.1-1.44,2.39-2.13,3.83-2.13,1.13,0,2.13,.57,2.98,1.69l27.35,37.61c.85,.85,1.29,1.82,1.29,2.98s-.72,2.45-2.13,3.86c-10.83,10.8-23.7,19.09-38.68,24.77-14.94,5.72-30.86,8.54-47.66,8.54-25.05,0-45.71-5.62-61.94-16.86-16.26-11.27-27.06-27-32.5-47.22-2.58-9.42-3.86-19.53-3.86-30.36,0-6,.44-12.37,1.29-19.25,1.73-15.67,5.87-31.21,12.4-46.59,9.67-21.04,23.55-37.64,41.66-49.73,18.08-12.15,38.4-18.21,60.94-18.21,18.18,0,34,4.08,47.41,12.18,13.37,8.13,23.74,19.4,30.99,33.78,7.25,14.38,11.05,30.71,11.3,48.92,.32,8.57-.57,19.81-2.54,33.78m-126.09-46.59c-.81,1.98-1.82,4.99-2.98,8.98-.57,1.41-.13,2.13,1.29,2.13h58.96c1.41,0,2.13-.72,2.13-2.13,0-2.01-.25-4.71-.82-8.1-1.16-7.16-4.08-12.56-8.79-16.29-4.71-3.67-10.86-5.53-18.59-5.53-13.97,0-24.37,6.97-31.21,20.94"/><path class="e" d="M733.37,345.04l-5.96,47.88c-.28,1.44-.94,2.64-1.88,3.67-1.04,.94-2.26,1.44-3.67,1.44h-39.34c-.53,0-1.04,.22-1.48,.66-.41,.44-.63,.94-.63,1.48l-19.22,156.01c-.32,1.41-.94,2.64-1.95,3.64-.97,1.01-2.2,1.48-3.61,1.48h-59c-1.44,0-2.58-.47-3.42-1.48-.85-1-1.16-2.23-.85-3.64l19.25-156.01c0-1.38-.59-2.13-1.73-2.13h-23.51c-1.41,0-2.58-.5-3.39-1.44-.88-1.04-1.19-2.23-.88-3.67l5.97-47.88c.32-1.41,.94-2.6,1.95-3.64,1.01-.94,2.2-1.45,3.64-1.45h23.05c1.73,0,2.58-.72,2.58-2.13l1.29-11.55c2.01-16.83,6.47-30.02,13.47-39.53,6.97-9.55,17.08-16.26,30.33-20.09,13.25-3.83,30.71-5.34,52.37-4.49h17.08c1.44,0,2.58,.5,3.42,1.51,.88,.97,1.13,2.2,.88,3.64l-4.74,38.87c-.25,1.44-.88,2.64-1.91,3.64-1.01,1.01-2.23,1.51-3.61,1.51h-16.23c-7.44,.57-12.84,2.39-16.26,5.56-3.42,3.11-5.68,8.41-6.81,15.79l-.44,5.15c0,1.41,.57,2.13,1.7,2.13h38.9c3.14,0,4.68,1.7,4.68,5.09"/><path class="e" d="M916.51,341.87c1.01-1,2.23-1.51,3.64-1.51h59c1.41,0,2.54,.5,3.42,1.51,.85,1.01,1.13,2.2,.85,3.64l-26.09,210.67c-.28,1.41-.91,2.64-1.91,3.64-1.01,1.01-2.2,1.48-3.64,1.48h-58.96c-1.44,0-2.58-.47-3.45-1.48-.85-1-1.1-2.23-.85-3.64l2.13-16.23c0-.85-.19-1.44-.63-1.69-.41-.28-1.07,0-1.92,.85-13.37,17.08-30.89,25.62-52.56,25.62-18.53,0-34.29-5.9-47.22-17.74-12.97-11.77-21.16-27.85-24.58-48.07-1.16-5.97-1.73-12.81-1.73-20.5s.72-17.39,2.16-28.22c2.26-21.07,7.25-39.31,14.98-54.69,7.94-17.08,19.65-31.12,35.01-42.1,15.38-10.96,32.75-16.45,52.15-16.45,21.07,0,35.76,7.25,44.02,21.79,.57,.85,1.13,1.16,1.7,.85,.59-.25,.88-.85,.88-1.69l1.69-12.37c.28-1.44,.94-2.64,1.92-3.64m-15.17,109.17c.88-6.84,1.26-12.68,1.26-17.52,0-6.53-.82-12.37-2.54-17.52-1.73-5.68-4.62-10.17-8.76-13.47-4.14-3.26-9.32-4.9-15.57-4.9-6.56,0-12.4,1.73-17.52,5.12-5.15,3.42-9.29,8.13-12.4,14.13-4.58,7.69-7.85,19.06-9.83,34.16-.59,4.02-.85,9.42-.85,16.23,0,7.44,.69,13.28,2.13,17.55,1.66,5.68,4.74,10.33,9.17,13.91,4.39,3.55,9.89,5.34,16.45,5.34,12.53,0,22.23-6.59,29.07-19.69,4.84-7.94,7.98-19.09,9.39-33.34"/><path class="g" d="M185.59,192.64c-10.86,.16-18.65-5.24-25.27-13.31-13.34-16.17-21.22-15.92-31.9,1.2-7.88,12.62-17.61,20.66-33.56,16.17-13.81-3.86-24.24-16.73-23.93-31.27,.32-13.88,5.56-25.56,19.88-30.64,15.26-5.4,27.31-1,37.05,11.9,11.27,14.98,21.85,13.94,32.62-2.51,9.83-15.04,22.2-20.16,35.38-14.66,14.66,6.12,24.3,23.55,21.13,38.15-3.45,15.89-15.29,25.31-31.4,24.99"/><path class="d" d="M67.26,123.03c-11.81-.13-19.94-9.48-18.34-22.1,1.66-12.97,8.1-23.36,18.62-31.3,7.75-5.9,13.72-12.21,9.48-23.73-3.42-9.2,4.3-14.51,10.8-18.56,8.64-5.37,17.43-13.25,28.51-9.39,6.91,2.42,3.89,8.54,.57,12.94-5.87,7.56-15.01,11.08-22.16,17.05-6.63,5.49-11.71,11.62-1.88,18.74,12.12,8.79,11.27,20.35,6.66,32.18-4.87,12.5-21.38,24.33-32.24,24.18"/><path class="c" d="M175.01,89.69c-12.78-.57-23.99-4.55-28.51-17.65-4.24-12.4,.53-22.29,11.52-29.42,9.39-6.09,8.64-11.87-.88-17.39-4.14-2.36-7.94-5.78-6.56-11.24,1.57-6.22,7.13-6.97,12.4-7.41,5.78-.5,11.62-.34,16.83,2.35,7.88,4.08,12.18,10.24,3.01,16.42-11.49,7.82-5.34,12.15,1.76,17.14,.85,.63,1.85,.97,2.79,1.44,12.4,6.03,18.02,16.11,14.76,29.39-3.39,13.53-14.82,16.1-27.13,16.36"/><path class="c" d="M4.12,175.06c12.28-25.4-4.93-59.34,15.48-87.06,4.52-6.15,8.32-17.58,15.7-14.54,9.36,3.83,3.46,14.76,.88,21.98-3.14,8.7-7.91,16.95-12.72,24.93-7.69,12.87-8.89,24.49,1.13,37.33,10.83,13.94,11.49,30.8,8.92,47.75-.85,5.37-2.79,10.46-9.01,11.3-6.15,.88-9.42-3.58-12.06-8.2-5.28-9.23-7.82-19.25-8.32-33.5"/><path class="d" d="M53.03,263.85c-.13-2.23,.03-3.8-.38-5.18-2.11-7.13-8.73-15.32,.47-20.97,8.64-5.28,15.73,1.25,21.85,7.19,7.22,6.94,13.22,14.72,16.2,24.46,1.41,4.52,3.2,9.51-.47,13.34-4.74,4.9-9.7,1-14.29-1.1-3.67-1.66-7.19-3.67-10.61-5.43-2.45,2.89-.38,4.27,.47,6,2.35,4.84,12.12,8.26,7.72,13.25-4.74,5.37-11.55-1.54-15.89-5.18-8.32-6.97-15.82-15.04-23.2-23.05-2.7-2.89-5.84-7.47-1.95-11.09,3.55-3.26,6.31,1.38,9.17,3.23,2.95,1.92,5.12,5.4,10.9,4.52"/><path class="b" d="M176.55,692.7c-5.56-4.36-8.35-10.3-8.35-17.83,0-.82,.06-2.07,.25-3.8l.38-2.45c.09-.44,.28-.82,.56-1.13,.35-.28,.69-.44,1.13-.44h17.55c.44,0,.75,.16,1.04,.44,.25,.32,.35,.69,.25,1.13l-.25,1.54c-.34,2.86,.76,5.37,3.3,7.47,2.57,2.13,6.18,3.17,10.86,3.17,3.99,0,6.94-.91,8.89-2.76,1.95-1.86,2.92-3.93,2.92-6.19,0-2.07-.91-3.71-2.7-4.87-1.82-1.16-5.12-2.6-9.89-4.33l-2.98-1.07c-4.84-1.73-9.04-3.51-12.59-5.43-3.58-1.92-6.63-4.52-9.17-7.79-2.58-3.33-3.83-7.31-3.83-12.09,0-.72,.06-1.82,.25-3.39,.69-5.37,2.64-10.08,5.9-14.1,3.26-4.02,7.44-7.13,12.56-9.29,5.09-2.17,10.71-3.23,16.86-3.23s11.3,1.04,15.92,3.11c4.65,2.07,8.26,5.06,10.86,8.92,2.61,3.83,3.89,8.29,3.89,13.31,0,.76-.09,2.01-.25,3.74l-.28,1.82c0,.44-.19,.82-.5,1.1-.35,.34-.76,.47-1.19,.47h-17.39c-.44,0-.82-.13-1.1-.47-.32-.28-.41-.66-.32-1.1l.13-.88c.35-3.04-.63-5.71-2.92-8.07-2.32-2.36-5.62-3.49-9.95-3.49-3.55,0-6.37,.78-8.45,2.39-2.07,1.6-3.11,3.83-3.11,6.69,0,1.54,.56,2.89,1.66,4.02,1.13,1.13,2.83,2.2,5.09,3.2,2.26,.97,5.71,2.35,10.39,4.08,5.3,1.91,9.38,3.55,12.28,4.93,2.89,1.38,5.62,3.61,8.16,6.69,2.58,3.08,3.86,7.03,3.86,11.9,0,.69-.09,1.82-.28,3.36-1.04,8.41-4.86,15.07-11.49,19.94-6.63,4.9-14.98,7.35-24.99,7.35s-17.36-2.17-22.95-6.56"/><path class="b" d="M292.9,697.78c-.28-.31-.34-.69-.28-1.1l10.8-87.85c0-.44,.16-.78,.53-1.1,.34-.28,.72-.44,1.16-.44h17.8c.94,0,1.41,.53,1.41,1.54l-4.14,33.82c-.13,.25-.06,.38,.13,.44,.19,.03,.34-.03,.53-.19l29.73-34.73c.5-.59,1.1-.88,1.82-.88h20.5c.72,0,1.07,.28,1.07,.88,0,.28-.13,.63-.38,1.07l-31.87,37.55c-.35,.34-.41,.63-.25,.88l22.48,48.73c.09,.19,.13,.44,.13,.78,0,.69-.47,1.04-1.41,1.04h-20.03c-.85,0-1.41-.34-1.67-1.04l-15.6-34.69c-.09-.53-.41-.53-.91,0l-7.66,9.23-.41,.78-2.83,24.17c-.09,.41-.28,.79-.59,1.1-.28,.28-.69,.44-1.1,.44h-17.93c-.44,0-.79-.16-1.04-.44"/><path class="b" d="M478.4,697.85c-.22-.25-.41-.57-.5-.91l-1.82-11.55c-.16-.38-.41-.53-.66-.53h-28.7c-.25,0-.47,.16-.66,.53l-4.68,11.55c-.44,.88-1.07,1.29-1.95,1.29h-19.21c-.53,0-.88-.16-1.1-.47-.22-.28-.22-.72,.03-1.35l37.68-87.82c.44-.88,1.07-1.29,1.85-1.29h23.77c.76,0,1.29,.41,1.54,1.29l16.26,87.82v.53c0,.88-.5,1.29-1.45,1.29h-19.37c-.41,0-.75-.13-1.04-.38m-24.68-29.64h18.71c.44,0,.66-.25,.66-.75l-5.46-33.38c-.09-.38-.22-.53-.38-.47-.19,.06-.32,.19-.41,.47l-13.5,33.38c-.25,.5-.16,.75,.38,.75"/><path class="b" d="M604.3,697.06l-10.52-34.57c-.19-.35-.44-.53-.78-.53h-8.32c-.44,0-.66,.25-.66,.69l-4.14,34.03c-.09,.41-.28,.79-.59,1.1-.32,.28-.66,.44-1.1,.44h-17.93c-.41,0-.79-.16-1.04-.44-.25-.31-.34-.69-.25-1.1l10.77-87.82c0-.47,.19-.82,.53-1.13,.34-.28,.72-.44,1.16-.44h37.39c7.63,0,13.66,2.17,18.08,6.5,4.43,4.33,6.63,10.17,6.63,17.52,0,.88-.1,2.26-.25,4.18-.78,5.81-2.82,10.8-6.12,15.07-3.26,4.24-7.54,7.31-12.72,9.2-.44,.19-.57,.5-.41,.94l12.21,35.7c.09,.19,.13,.38,.13,.66,0,.78-.5,1.16-1.54,1.16h-18.84c-.88,0-1.44-.38-1.69-1.16m-15.86-70.68l-2.2,18.46c-.19,.41,0,.63,.5,.63h14.03c3.39,0,6.19-1.04,8.38-3.11,2.2-2.1,3.33-4.8,3.33-8.2,0-2.58-.85-4.65-2.54-6.15-1.7-1.51-3.96-2.29-6.84-2.29h-13.88c-.53,0-.78,.22-.78,.66"/><path class="b" d="M685.99,697.78c-.25-.31-.32-.69-.25-1.1l10.8-87.85c0-.44,.16-.78,.5-1.1,.35-.28,.76-.44,1.2-.44h17.8c.91,0,1.38,.53,1.38,1.54l-10.74,87.85c-.09,.41-.28,.79-.59,1.1-.32,.28-.66,.44-1.1,.44h-17.96c-.41,0-.78-.16-1.04-.44"/><path class="b" d="M777.26,692.7c-5.59-4.36-8.35-10.3-8.35-17.83,0-.82,.06-2.07,.22-3.8l.41-2.45c.1-.44,.28-.82,.6-1.13,.28-.28,.66-.44,1.1-.44h17.52c.44,0,.78,.16,1.07,.44,.25,.32,.32,.69,.25,1.13l-.25,1.54c-.38,2.86,.75,5.37,3.3,7.47,2.54,2.13,6.15,3.17,10.83,3.17,3.99,0,6.97-.91,8.92-2.76,1.95-1.86,2.92-3.93,2.92-6.19,0-2.07-.91-3.71-2.73-4.87-1.82-1.16-5.12-2.6-9.86-4.33l-2.98-1.07c-4.86-1.73-9.07-3.51-12.62-5.43-3.55-1.92-6.63-4.52-9.17-7.79-2.54-3.33-3.83-7.31-3.83-12.09,0-.72,.09-1.82,.28-3.39,.66-5.37,2.64-10.08,5.9-14.1,3.27-4.02,7.41-7.13,12.53-9.29,5.12-2.17,10.74-3.23,16.89-3.23s11.27,1.04,15.92,3.11c4.65,2.07,8.26,5.06,10.83,8.92,2.61,3.83,3.93,8.29,3.93,13.31,0,.76-.1,2.01-.28,3.74l-.25,1.82c0,.44-.16,.82-.53,1.1-.32,.34-.72,.47-1.16,.47h-17.39c-.44,0-.78-.13-1.1-.47-.31-.28-.44-.66-.34-1.1l.13-.88c.35-3.04-.63-5.71-2.92-8.07-2.26-2.36-5.59-3.49-9.92-3.49-3.55,0-6.37,.78-8.45,2.39-2.1,1.6-3.11,3.83-3.11,6.69,0,1.54,.53,2.89,1.67,4.02,1.13,1.13,2.83,2.2,5.09,3.2,2.23,.97,5.71,2.35,10.39,4.08,5.28,1.91,9.36,3.55,12.28,4.93,2.92,1.38,5.62,3.61,8.19,6.69,2.54,3.08,3.8,7.03,3.8,11.9,0,.69-.06,1.82-.25,3.36-1.04,8.41-4.87,15.07-11.49,19.94-6.63,4.9-14.98,7.35-24.99,7.35s-17.36-2.17-22.95-6.56"/><path class="b" d="M949.6,697.85c-.25-.25-.44-.57-.5-.91l-1.85-11.55c-.16-.38-.38-.53-.63-.53h-28.73c-.25,0-.47,.16-.63,.53l-4.68,11.55c-.44,.88-1.1,1.29-1.95,1.29h-19.25c-.5,0-.88-.16-1.1-.47-.22-.28-.19-.72,.06-1.35l37.68-87.82c.44-.88,1.04-1.29,1.82-1.29h23.77c.78,0,1.29,.41,1.57,1.29l16.23,87.82v.53c0,.88-.47,1.29-1.44,1.29h-19.34c-.44,0-.78-.13-1.04-.38m-24.68-29.64h18.71c.41,0,.63-.25,.63-.75l-5.43-33.38c-.1-.38-.22-.53-.41-.47-.16,.06-.32,.19-.41,.47l-13.5,33.38c-.25,.5-.13,.75,.41,.75"/><path class="f" d="M290.2,399.2c-1.16,1.01-2.45,1.51-3.86,1.51h-37.61c-1.41,0-2.13,.72-2.13,2.13l-9.83,77.77c-.25,1.45-.44,3.46-.44,6,0,12.24,5.56,18.37,16.67,18.37h15.42c1.41,0,2.54,.5,3.39,1.48,.85,1,1.13,2.23,.85,3.64l-6,49.58c-.53,3.14-2.39,4.99-5.56,5.56-13.66,.57-23.49,.88-29.45,.88-21.95,0-38.27-3.14-48.95-9.39-10.67-6.28-16.04-17.99-16.04-35.07,0-2.26,.28-6.28,.88-11.96l12.81-106.84c.56-1.41,0-2.13-1.7-2.13h-23.51c-1.41,0-2.54-.5-3.39-1.51-.88-.97-1.19-2.2-.88-3.64l5.56-46.56c.28-1.41,.94-2.64,1.92-3.61,1-1.04,2.2-1.54,3.64-1.54h23.51c1.69,0,2.54-.69,2.54-2.13l6.44-51.68c.25-1.44,.91-2.67,1.88-3.64,1.01-1,2.23-1.54,3.67-1.54h55.98c1.41,0,2.54,.53,3.42,1.54,.85,.97,1.13,2.2,.85,3.64l-6.4,51.68c0,1.45,.53,2.13,1.69,2.13h38.05c1.41,0,2.54,.5,3.42,1.54,.85,.97,1.1,2.2,.85,3.61l-6.03,46.56c0,1.45-.53,2.67-1.67,3.64"/><path class="f" d="M534.63,468.68c-.85,3.39-2.98,5.09-6.4,5.09h-126.09c-1.69,0-2.54,.72-2.54,2.16,.32,4.27,1.13,8.38,2.54,12.37,2.6,6,7,10.83,13.28,14.54,6.25,3.71,14.22,5.56,23.92,5.56,17.11,0,31.46-5.84,43.17-17.52,1.13-1.41,2.42-2.13,3.83-2.13,1.16,0,2.13,.56,3.02,1.69l27.35,37.61c.85,.85,1.29,1.85,1.29,2.98s-.72,2.45-2.13,3.86c-10.86,10.8-23.74,19.12-38.71,24.77-14.94,5.72-30.83,8.54-47.66,8.54-25.05,0-45.71-5.62-61.95-16.86-16.23-11.27-27.03-26.97-32.49-47.22-2.54-9.42-3.83-19.5-3.83-30.36,0-5.97,.44-12.37,1.29-19.22,1.73-15.67,5.84-31.21,12.4-46.59,9.67-21.07,23.55-37.68,41.66-49.77,18.08-12.12,38.4-18.18,60.88-18.18,18.24,0,34.06,4.08,47.47,12.18,13.38,8.1,23.7,19.4,30.99,33.75,7.25,14.38,11.02,30.71,11.3,48.95,.31,8.57-.57,19.81-2.58,33.78m-126.06-46.62c-.85,2.01-1.85,4.99-2.98,8.98-.59,1.45-.16,2.14,1.29,2.14h58.96c1.41,0,2.13-.69,2.13-2.14,0-1.98-.28-4.68-.85-8.1-1.16-7.13-4.08-12.56-8.76-16.26-4.71-3.67-10.92-5.56-18.59-5.56-13.97,0-24.36,6.97-31.21,20.94"/><path class="f" d="M734.66,348.56l-5.97,47.88c-.31,1.41-.94,2.6-1.92,3.61-1,1-2.23,1.48-3.64,1.48h-39.34c-.56,0-1.07,.25-1.48,.69-.44,.41-.63,.91-.63,1.48l-19.25,155.98c-.28,1.44-.94,2.67-1.92,3.64-1,1.01-2.2,1.51-3.64,1.51h-58.96c-1.44,0-2.57-.5-3.45-1.51-.82-.97-1.13-2.2-.82-3.64l19.22-155.98c0-1.38-.6-2.17-1.73-2.17h-23.49c-1.41,0-2.61-.47-3.42-1.48-.85-1.01-1.16-2.2-.85-3.61l5.96-47.88c.28-1.44,.94-2.64,1.95-3.64,.97-1,2.17-1.48,3.61-1.48h23.08c1.73,0,2.57-.72,2.57-2.13l1.29-11.55c2.01-16.8,6.47-29.99,13.47-39.53,6.94-9.55,17.08-16.23,30.33-20.09,13.25-3.83,30.71-5.34,52.34-4.46h17.11c1.45,0,2.58,.47,3.42,1.51,.88,.97,1.13,2.2,.88,3.61l-4.74,38.9c-.25,1.41-.91,2.61-1.92,3.64-1.01,.94-2.2,1.48-3.64,1.48h-16.23c-7.41,.57-12.81,2.42-16.23,5.56-3.42,3.14-5.68,8.41-6.81,15.79l-.47,5.15c0,1.41,.57,2.13,1.76,2.13h38.87c3.11,0,4.68,1.7,4.68,5.12"/><path class="f" d="M917.8,345.39c1-1.04,2.2-1.54,3.64-1.54h58.96c1.44,0,2.58,.5,3.42,1.54,.88,.97,1.13,2.17,.88,3.61l-26.09,210.67c-.32,1.44-.91,2.67-1.92,3.64-1.04,1.01-2.23,1.51-3.64,1.51h-58.99c-1.41,0-2.54-.5-3.39-1.51-.88-.97-1.13-2.2-.88-3.64l2.13-16.23c0-.85-.19-1.41-.63-1.69-.41-.28-1.07,0-1.91,.85-13.41,17.08-30.93,25.65-52.56,25.65-18.53,0-34.29-5.9-47.22-17.74-12.97-11.81-21.16-27.85-24.59-48.1-1.16-5.97-1.73-12.81-1.73-20.47s.72-17.4,2.13-28.23c2.29-21.1,7.29-39.34,14.98-54.72,7.94-17.08,19.65-31.12,35.04-42.1,15.38-10.96,32.75-16.42,52.15-16.42,21.07,0,35.73,7.25,43.99,21.79,.6,.82,1.13,1.13,1.73,.82,.6-.25,.88-.82,.88-1.69l1.69-12.37c.28-1.44,.91-2.64,1.92-3.61m-15.2,109.17c.88-6.84,1.32-12.68,1.32-17.52,0-6.56-.85-12.4-2.58-17.52-1.73-5.72-4.65-10.2-8.76-13.5-4.14-3.23-9.33-4.9-15.61-4.9s-12.37,1.73-17.52,5.15c-5.12,3.42-9.26,8.1-12.37,14.1-4.58,7.73-7.85,19.09-9.83,34.19-.6,3.99-.88,9.39-.88,16.2,0,7.44,.72,13.31,2.13,17.55,1.7,5.71,4.77,10.33,9.2,13.91,4.39,3.58,9.86,5.34,16.45,5.34,12.53,0,22.2-6.56,29.07-19.65,4.84-7.97,7.97-19.12,9.36-33.34"/><path class="g" d="M186.88,196.16c-10.86,.16-18.65-5.28-25.31-13.35-13.31-16.17-21.19-15.92-31.9,1.2-7.88,12.65-17.62,20.66-33.5,16.2-13.85-3.89-24.27-16.73-23.96-31.3,.31-13.91,5.56-25.56,19.87-30.64,15.26-5.4,27.29-1,37.05,11.9,11.27,14.98,21.85,13.97,32.62-2.51,9.83-15.04,22.17-20.13,35.38-14.63,14.63,6.12,24.27,23.52,21.13,38.12-3.45,15.92-15.29,25.34-31.39,25.02"/><path class="d" d="M68.57,126.55c-11.87-.15-19.97-9.51-18.37-22.13,1.6-12.94,8.1-23.33,18.62-31.3,7.75-5.87,13.72-12.21,9.45-23.73-3.39-9.2,4.3-14.47,10.83-18.53,8.63-5.4,17.43-13.28,28.51-9.39,6.88,2.42,3.89,8.54,.57,12.87-5.87,7.6-15.01,11.15-22.17,17.08-6.62,5.47-11.74,11.65-1.88,18.78,12.12,8.76,11.27,20.32,6.66,32.15-4.9,12.53-21.38,24.36-32.21,24.21"/><path class="c" d="M176.27,93.18c-12.75-.53-23.96-4.55-28.48-17.65-4.27-12.4,.53-22.29,11.49-29.42,9.42-6.09,8.66-11.87-.85-17.36-4.14-2.39-7.97-5.78-6.56-11.27,1.57-6.22,7.1-6.97,12.4-7.41,5.77-.47,11.58-.34,16.83,2.39,7.88,4.08,12.18,10.24,3.01,16.42-11.52,7.78-5.34,12.15,1.76,17.14,.82,.56,1.85,.94,2.76,1.38,12.4,6.06,18.05,16.17,14.76,29.42-3.36,13.53-14.82,16.1-27.13,16.36"/><path class="c" d="M5.4,178.54c12.28-25.37-4.93-59.31,15.45-87.06,4.55-6.12,8.35-17.58,15.73-14.54,9.36,3.86,3.45,14.76,.88,21.98-3.14,8.73-7.91,16.95-12.72,24.93-7.72,12.87-8.89,24.52,1.1,37.33,10.86,13.94,11.52,30.83,8.95,47.79-.85,5.37-2.79,10.42-9.01,11.3-6.15,.85-9.42-3.58-12.06-8.23-5.3-9.23-7.82-19.25-8.32-33.5"/><path class="d" d="M54.29,267.34c-.13-2.2,.06-3.8-.35-5.18-2.13-7.13-8.73-15.32,.47-20.94,8.63-5.28,15.73,1.22,21.85,7.12,7.22,6.97,13.22,14.76,16.2,24.52,1.38,4.49,3.2,9.45-.5,13.31-4.71,4.9-9.64,1.04-14.25-1.07-3.67-1.67-7.19-3.7-10.61-5.46-2.45,2.89-.38,4.3,.47,6,2.32,4.87,12.09,8.26,7.73,13.25-4.74,5.4-11.59-1.51-15.92-5.15-8.32-7-15.82-15.04-23.2-23.07-2.64-2.89-5.81-7.47-1.95-11.05,3.58-3.3,6.34,1.38,9.2,3.2,2.95,1.92,5.12,5.4,10.86,4.52"/><path class="f" d="M177.83,696.21c-5.59-4.36-8.38-10.33-8.38-17.87,0-.82,.09-2.07,.28-3.77l.38-2.48c.06-.41,.28-.78,.57-1.1,.31-.31,.69-.44,1.13-.44h17.52c.44,0,.78,.13,1.07,.44,.25,.32,.31,.69,.25,1.1l-.25,1.57c-.38,2.86,.75,5.34,3.3,7.47,2.58,2.11,6.19,3.17,10.86,3.17,3.95,0,6.94-.91,8.89-2.79,1.95-1.86,2.92-3.93,2.92-6.15,0-2.11-.91-3.74-2.73-4.87-1.82-1.16-5.12-2.64-9.86-4.37l-2.98-1.04c-4.87-1.73-9.07-3.55-12.59-5.46-3.58-1.92-6.63-4.52-9.17-7.79-2.57-3.3-3.86-7.31-3.86-12.09,0-.69,.1-1.82,.28-3.39,.69-5.37,2.67-10.05,5.9-14.1,3.23-4.02,7.41-7.1,12.56-9.26,5.09-2.2,10.71-3.27,16.86-3.27s11.27,1.04,15.92,3.11c4.61,2.11,8.22,5.05,10.83,8.92,2.6,3.83,3.92,8.29,3.92,13.31,0,.76-.09,2.01-.28,3.77l-.25,1.82c0,.41-.15,.81-.5,1.1-.34,.32-.75,.47-1.19,.47h-17.43c-.41,0-.78-.16-1.07-.47-.32-.28-.41-.69-.34-1.1l.16-.91c.31-3.01-.66-5.71-2.92-8.07-2.32-2.32-5.65-3.49-9.95-3.49-3.55,0-6.34,.78-8.45,2.39-2.07,1.6-3.11,3.83-3.11,6.69,0,1.57,.53,2.92,1.69,4.05,1.1,1.1,2.79,2.16,5.06,3.17,2.23,1,5.71,2.35,10.36,4.08,5.31,1.91,9.39,3.58,12.28,4.96,2.92,1.38,5.65,3.61,8.19,6.69,2.58,3.08,3.83,7.03,3.83,11.87,0,.72-.06,1.82-.22,3.36-1.07,8.41-4.9,15.07-11.52,19.97-6.62,4.9-14.98,7.31-24.99,7.31s-17.33-2.17-22.95-6.53"/><path class="f" d="M294.19,701.27c-.28-.31-.35-.66-.28-1.1l10.8-87.82c0-.44,.16-.82,.5-1.13,.35-.28,.76-.44,1.2-.44h17.77c.97,0,1.44,.53,1.44,1.57l-4.18,33.75c-.09,.28-.03,.44,.16,.47,.16,.06,.35-.03,.53-.19l29.73-34.69c.53-.6,1.1-.91,1.79-.91h20.53c.72,0,1.04,.31,1.04,.91,0,.28-.1,.59-.38,1.04l-31.84,37.55c-.34,.34-.41,.63-.25,.91l22.48,48.73c.1,.16,.13,.44,.13,.76,0,.69-.47,1.04-1.44,1.04h-19.97c-.91,0-1.44-.34-1.73-1.04l-15.57-34.66c-.09-.53-.41-.53-.91,0l-7.66,9.2-.41,.78-2.85,24.17c-.1,.44-.28,.79-.57,1.1-.32,.32-.69,.44-1.13,.44h-17.93c-.41,0-.75-.13-1-.44"/><path class="f" d="M479.68,701.33c-.25-.25-.41-.57-.5-.88l-1.82-11.58c-.19-.35-.41-.5-.66-.5h-28.69c-.25,0-.5,.15-.66,.5l-4.68,11.58c-.44,.85-1.07,1.26-1.95,1.26h-19.22c-.53,0-.91-.13-1.1-.44-.22-.31-.22-.75,.03-1.35l37.68-87.85c.44-.85,1.04-1.29,1.82-1.29h23.8c.75,0,1.29,.44,1.54,1.29l16.23,87.85v.53c0,.85-.44,1.26-1.41,1.26h-19.37c-.44,0-.78-.13-1.04-.38m-24.68-29.61h18.71c.44,0,.66-.28,.66-.78l-5.47-33.41c-.09-.34-.22-.5-.41-.44-.19,.03-.28,.19-.38,.44l-13.5,33.41c-.25,.5-.16,.78,.38,.78"/><path class="f" d="M605.55,700.55l-10.52-34.54c-.19-.34-.41-.53-.75-.53h-8.32c-.44,0-.66,.19-.66,.66l-4.14,34.03c-.1,.44-.28,.79-.6,1.1-.32,.32-.66,.44-1.1,.44h-17.93c-.44,0-.78-.13-1.07-.44-.22-.31-.34-.66-.22-1.1l10.77-87.82c0-.44,.16-.82,.53-1.13,.35-.28,.72-.44,1.16-.44h37.39c7.63,0,13.66,2.17,18.08,6.5,4.4,4.33,6.63,10.17,6.63,17.55,0,.88-.09,2.23-.25,4.14-.78,5.81-2.86,10.83-6.12,15.07-3.3,4.24-7.54,7.31-12.75,9.23-.41,.16-.57,.47-.38,.91l12.21,35.73c.1,.16,.13,.38,.13,.63,0,.78-.5,1.16-1.57,1.16h-18.84c-.85,0-1.41-.38-1.7-1.16m-15.82-70.68l-2.23,18.46c-.16,.44,0,.66,.53,.66h14.03c3.39,0,6.15-1.07,8.35-3.14,2.23-2.07,3.33-4.77,3.33-8.16,0-2.61-.85-4.68-2.51-6.19-1.69-1.51-3.99-2.26-6.84-2.26h-13.91c-.5,0-.75,.22-.75,.63"/><path class="f" d="M687.28,701.27c-.25-.31-.34-.66-.25-1.1l10.77-87.82c0-.44,.19-.82,.53-1.13,.34-.28,.72-.44,1.16-.44h17.8c.94,0,1.41,.53,1.41,1.57l-10.77,87.82c-.06,.44-.28,.79-.59,1.1-.28,.32-.66,.44-1.1,.44h-17.93c-.41,0-.76-.13-1.04-.44"/><path class="f" d="M778.55,696.21c-5.59-4.36-8.38-10.33-8.38-17.87,0-.82,.09-2.07,.25-3.77l.41-2.48c.09-.41,.28-.78,.56-1.1,.32-.31,.69-.44,1.1-.44h17.55c.44,0,.78,.13,1.04,.44,.28,.32,.38,.69,.28,1.1l-.28,1.57c-.34,2.86,.76,5.34,3.33,7.47,2.54,2.11,6.15,3.17,10.83,3.17,3.99,0,6.94-.91,8.92-2.79,1.95-1.86,2.92-3.93,2.92-6.15,0-2.11-.91-3.74-2.73-4.87-1.82-1.16-5.12-2.64-9.86-4.37l-3.01-1.04c-4.84-1.73-9.04-3.55-12.59-5.46-3.58-1.92-6.59-4.52-9.17-7.79-2.57-3.3-3.83-7.31-3.83-12.09,0-.69,.06-1.82,.25-3.39,.72-5.37,2.67-10.05,5.9-14.1,3.27-4.02,7.44-7.1,12.56-9.26,5.12-2.2,10.74-3.27,16.89-3.27s11.27,1.04,15.92,3.11c4.62,2.11,8.26,5.05,10.83,8.92,2.61,3.83,3.89,8.29,3.89,13.31,0,.76-.09,2.01-.25,3.77l-.25,1.82c0,.41-.19,.81-.53,1.1-.32,.32-.72,.47-1.16,.47h-17.39c-.44,0-.82-.16-1.13-.47-.32-.28-.41-.69-.32-1.1l.13-.91c.35-3.01-.63-5.71-2.92-8.07-2.29-2.32-5.59-3.49-9.95-3.49-3.55,0-6.34,.78-8.45,2.39-2.07,1.6-3.11,3.83-3.11,6.69,0,1.57,.57,2.92,1.69,4.05,1.13,1.1,2.79,2.16,5.05,3.17,2.26,1,5.72,2.35,10.39,4.08,5.3,1.91,9.39,3.58,12.31,4.96,2.89,1.38,5.62,3.61,8.16,6.69,2.54,3.08,3.83,7.03,3.83,11.87,0,.72-.09,1.82-.25,3.36-1.07,8.41-4.86,15.07-11.49,19.97-6.62,4.9-14.98,7.31-25.02,7.31s-17.33-2.17-22.92-6.53"/><path class="f" d="M950.89,701.33c-.28-.25-.44-.57-.53-.88l-1.82-11.58c-.16-.35-.38-.5-.66-.5h-28.7c-.28,0-.47,.15-.66,.5l-4.65,11.58c-.44,.85-1.1,1.26-1.98,1.26h-19.22c-.5,0-.88-.13-1.1-.44-.22-.31-.22-.75,.06-1.35l37.64-87.85c.44-.85,1.07-1.29,1.85-1.29h23.77c.75,0,1.29,.44,1.57,1.29l16.23,87.85v.53c0,.85-.47,1.26-1.45,1.26h-19.34c-.44,0-.78-.13-1.04-.38m-24.71-29.61h18.74c.41,0,.63-.28,.63-.78l-5.46-33.41c-.06-.34-.19-.5-.38-.44-.19,.03-.32,.19-.41,.44l-13.5,33.41c-.25,.5-.13,.78,.38,.78"/></svg>